<svg xmlns="http://www.w3.org/2000/svg" xmlns:xlink="http://www.w3.org/1999/xlink" version="1.1" x="0px" y="0px" viewBox="0 0 100 125" enable-background="new 0 0 100 100" xml:space="preserve"><path fill="#000000" d="M70.323,79.073c0.306,0,0.587-0.146,0.765-0.395l7.543-7.64c0.21-0.211,0.303-0.51,0.254-0.809V46.278  c0.019-0.104,0.039-0.209,0.021-0.318V21.866c0-0.518-0.422-0.939-0.94-0.939l-24.172,0.001c-0.058,0.002-0.11,0.023-0.166,0.035  l-23.995,0.001c-0.108,0.004-0.214,0.025-0.313,0.063c-0.01,0.004-0.019,0.007-0.028,0.012c-0.111,0.049-0.212,0.117-0.302,0.207  l-7.559,7.74c-0.073,0.076-0.133,0.163-0.177,0.26c-0.101,0.153-0.154,0.328-0.154,0.511v24.142  c-0.003,0.031-0.014,0.061-0.014,0.092v24.145c0,0.518,0.422,0.938,0.939,0.938h24.145c0.002,0,0.003-0.001,0.006-0.001  c0.001,0,0.002,0.001,0.004,0.001H70.323z M45.23,54.93v22.265H22.966V54.93H45.23z M69.405,52.924H47.14V30.659h22.266V52.924z   M77.028,45.703c-1.018,0.942-3.734,3.636-5.745,5.641V29.737l5.745-5.882V45.703z M69.591,28.781H48.382l5.838-5.977h21.209  L69.591,28.781z M45.244,52.96H22.979V30.695h22.265V52.96z M69.386,54.93v22.265H47.119V54.93H69.386z M71.264,75.828V54.25  l5.743-5.815v21.576L71.264,75.828z M51.559,22.84l-5.837,5.977h-21.5l5.837-5.977L51.559,22.84z"/></svg>
