<svg xmlns="http://www.w3.org/2000/svg" xmlns:xlink="http://www.w3.org/1999/xlink" version="1.1" x="0px" y="0px" viewBox="0 0 100 125" enable-background="new 0 0 100 100" xml:space="preserve"><path fill="#000000" d="M90,45.229L66.814,45.23V21.834c0-0.518-0.422-0.939-0.939-0.939l-24.172,0.001  c-0.113,0.004-0.223,0.027-0.324,0.068c-0.009,0.003-0.018,0.007-0.025,0.011c-0.097,0.043-0.186,0.102-0.264,0.174  c-0.01,0.009-0.021,0.019-0.03,0.028l-7.556,7.738c-0.076,0.077-0.136,0.166-0.18,0.263c-0.101,0.153-0.152,0.331-0.152,0.54v15.509  L17.581,45.23c-0.108,0.004-0.213,0.025-0.312,0.063c-0.011,0.003-0.021,0.007-0.03,0.012c-0.105,0.046-0.2,0.109-0.277,0.184  c-0.008,0.007-0.017,0.015-0.024,0.023l-7.561,7.742c-0.072,0.076-0.131,0.163-0.175,0.259c-0.101,0.152-0.153,0.328-0.153,0.51  v24.145c0,0.518,0.421,0.938,0.938,0.938h24.063h0.082h24.062c0.01,0,0.016-0.003,0.025-0.003c0.006,0,0.01,0.003,0.016,0.003  h24.145c0.305,0,0.586-0.146,0.762-0.394l7.547-7.643c0.209-0.211,0.301-0.509,0.252-0.807V46.167  C90.939,45.65,90.518,45.229,90,45.229z M81.439,54.961v22.265H59.174V54.961H81.439z M33.111,77.226H10.926V54.961h22.185V77.226z   M59.191,51.525v-21.82l5.746-5.882v21.885L59.191,51.525z M57.314,52.893H35.048V30.628h22.266V52.893z M34.989,74.912  c0.008-0.016,0.013-0.031,0.021-0.047c0.038-0.073,0.059-0.154,0.059-0.236V54.961h22.185v22.265H34.989V74.912z M60.416,53.083  l5.838-5.977h21.209l-5.838,5.977H60.416z M63.338,22.773L57.5,28.75H36.291l5.838-5.977H63.338z M33.171,53.083H12.168l5.837-5.977  h15.166V53.083z M89.063,48.157v21.885l-5.746,5.817v-21.82L89.063,48.157z"/></svg>
