<svg xmlns="http://www.w3.org/2000/svg" xmlns:xlink="http://www.w3.org/1999/xlink" version="1.1" x="0px" y="0px" viewBox="0 0 100 125" enable-background="new 0 0 100 100" xml:space="preserve"><path fill="#000000" d="M65.876,33.062l-24.173,0.001c-0.112,0.004-0.222,0.027-0.324,0.068c-0.008,0.003-0.017,0.007-0.024,0.011  c-0.098,0.043-0.186,0.102-0.264,0.174c-0.011,0.009-0.021,0.019-0.03,0.028l-7.557,7.738c-0.075,0.077-0.136,0.166-0.18,0.263  c-0.1,0.153-0.152,0.331-0.152,0.54v24.112c0,0.52,0.421,0.939,0.938,0.939h24.145c0.305,0,0.585-0.146,0.762-0.395l7.548-7.643  c0.209-0.213,0.3-0.51,0.251-0.805V34.001C66.815,33.483,66.395,33.062,65.876,33.062z M57.315,42.794v22.264H35.05V42.794H57.315z   M63.339,34.94l-5.838,5.977H36.292l5.838-5.977H63.339z M64.938,35.99v21.885l-5.746,5.816V41.872L64.938,35.99z"/></svg>
