<svg xmlns="http://www.w3.org/2000/svg" xmlns:xlink="http://www.w3.org/1999/xlink" version="1.1" x="0px" y="0px" viewBox="0 0 100 125" enable-background="new 0 0 100 100" xml:space="preserve"><path fill="#000000" d="M90.056,20.917l-24.172,0.001c-0.108,0.004-0.213,0.025-0.312,0.063c-0.011,0.003-0.021,0.007-0.03,0.012  c-0.104,0.045-0.198,0.107-0.276,0.183c-0.009,0.008-0.017,0.016-0.025,0.023l-7.561,7.742c-0.072,0.076-0.132,0.162-0.175,0.258  c-0.101,0.154-0.153,0.332-0.153,0.541v15.468H41.697H17.552c-0.021,0-0.042,0.001-0.063,0.004  c-0.102,0.007-0.197,0.029-0.287,0.064c-0.015,0.006-0.029,0.013-0.043,0.02c-0.104,0.049-0.195,0.113-0.271,0.191  c-0.002,0.001-0.003,0.003-0.005,0.004l-7.557,7.738c-0.074,0.075-0.135,0.163-0.179,0.261c-0.101,0.153-0.153,0.328-0.153,0.511  v24.145c0,0.518,0.421,0.938,0.938,0.938h24.145h0.001c0.001,0,0.001,0,0.001,0h24.144c0.007,0,0.012-0.002,0.019-0.003  c0.004,0,0.008,0.003,0.013,0.003h24.144c0.306,0,0.586-0.146,0.763-0.393l7.546-7.642c0.209-0.211,0.301-0.51,0.252-0.809V46.398  c0.047-0.142,0.063-0.295,0.038-0.449V21.855C90.995,21.338,90.574,20.917,90.056,20.917z M81.458,54.94v22.266H59.191V54.94H81.458  z M57.282,54.94v22.266H35.018V54.94H57.282z M83.372,51.547v-21.82l5.746-5.882V45.73L83.372,51.547z M81.495,52.914H59.229V30.649  h22.266V52.914z M87.519,22.795l-5.838,5.977H60.472l5.837-5.977H87.519z M57.352,53.063H36.259l5.837-5.979h15.256V53.063z   M39.473,47.085l-5.84,5.979h-21.52l5.837-5.979H39.473z M33.137,54.94v22.266H10.871V54.94H33.137z M83.335,75.839V54.258  l5.745-5.817v21.582L83.335,75.839z"/></svg>
