<svg xmlns="http://www.w3.org/2000/svg" xmlns:xlink="http://www.w3.org/1999/xlink" version="1.1" x="0px" y="0px" viewBox="0 0 100 125" enable-background="new 0 0 100 100" xml:space="preserve"><path fill="#000000" d="M82.387,54.793c0.306,0,0.587-0.146,0.764-0.395l7.543-7.64c0.211-0.211,0.304-0.509,0.254-0.809V21.855  c0-0.518-0.42-0.939-0.938-0.939l-24.043,0.001c-0.003,0-0.007-0.001-0.01-0.001l-24.172,0.001  c-0.108,0.004-0.213,0.025-0.312,0.063c-0.011,0.004-0.021,0.008-0.03,0.012c-0.105,0.046-0.2,0.109-0.277,0.184  c-0.008,0.007-0.017,0.015-0.024,0.023l-7.561,7.742c-0.072,0.076-0.131,0.163-0.175,0.258c-0.101,0.153-0.153,0.328-0.153,0.511  v15.498H17.599c-0.021,0-0.042,0.001-0.063,0.004c-0.103,0.007-0.2,0.029-0.29,0.066c-0.01,0.004-0.019,0.008-0.028,0.013  c-0.11,0.05-0.206,0.117-0.286,0.198c-0.005,0.006-0.011,0.012-0.017,0.018l-7.542,7.722C9.3,53.303,9.24,53.391,9.194,53.488  c-0.102,0.153-0.154,0.33-0.154,0.513v24.145c0,0.517,0.421,0.938,0.939,0.938h24.144c0.007,0,0.012-0.003,0.019-0.003  c0.004,0,0.008,0.003,0.013,0.003h24.144c0.306,0,0.586-0.146,0.763-0.394l7.546-7.642c0.209-0.211,0.301-0.51,0.252-0.809V54.793  H82.387z M59.244,52.914c0.015-0.048,0.029-0.096,0.029-0.148V30.649h22.176v22.265H59.244z M57.359,54.941v22.264H35.093V54.941  H57.359z M60.424,28.771l5.838-5.977h21.209l-5.838,5.977H60.424z M57.305,52.914H35.131V30.649h22.174V52.914z M83.326,51.547  v-21.82l5.744-5.882V45.73L83.326,51.547z M63.42,22.794l-5.838,5.977H36.373l5.837-5.977H63.42z M33.253,53.063H12.16l5.837-5.977  h15.256V53.063z M33.184,54.941v22.264H10.919V54.941H33.184z M59.236,75.839V54.793h5.745v15.229L59.236,75.839z"/></svg>
