<svg xmlns="http://www.w3.org/2000/svg" id="Logo_GX" viewBox="0 0 100 26.614">
    <defs>
        <style>
            .cls-1{fill:#666}
        </style>
    </defs>
    <path id="패스_129" d="M98.7 0H1.334A1.346 1.346 0 0 0 0 1.334V25.28a1.326 1.326 0 0 0 1.334 1.334h97.331A1.326 1.326 0 0 0 100 25.28V1.334A1.3 1.3 0 0 0 98.7 0zM73.385 24.492H2.637a.446.446 0 0 1-.455-.455v-21.4a.446.446 0 0 1 .455-.455h70.748v22.31zm24.492-.485a.446.446 0 0 1-.455.455H75.568V2.152h21.854a.446.446 0 0 1 .455.455z" class="cls-1" data-name="패스 129"/>
    <path id="패스_130" d="M26.45 35.307h.3a3.722 3.722 0 0 0 3.789-3.637v-3.3a.207.207 0 0 0-.212-.212h-3.544a.207.207 0 0 0-.212.212v1.7a.207.207 0 0 0 .212.212h1.394v1.516a1.436 1.436 0 0 1-1.516 1.364h-.181a1.436 1.436 0 0 1-1.516-1.364v-6.282a1.436 1.436 0 0 1 1.516-1.364h.182a1.506 1.506 0 0 1 1.516 1.455.207.207 0 0 0 .212.212h1.91a.207.207 0 0 0 .212-.212A3.675 3.675 0 0 0 26.722 22h-.3a3.729 3.729 0 0 0-3.822 3.637V31.7a3.792 3.792 0 0 0 3.85 3.607z" class="cls-1" data-name="패스 130" transform="translate(-15.75 -15.331)"/>
    <path id="패스_131" d="M58.912 35.613h1.879A.207.207 0 0 0 61 35.4v-4.182h.97l1.819 4.274a.2.2 0 0 0 .212.121h2.061a.216.216 0 0 0 .182-.091.266.266 0 0 0 .03-.212l-2-4.547a3.228 3.228 0 0 0 1.516-2.637v-2.3a3.18 3.18 0 0 0-3.3-3.122h-3.578a.207.207 0 0 0-.212.212v12.515a.2.2 0 0 0 .212.182zm2.122-10.791h1.455a.914.914 0 0 1 .94.879v2.486a.914.914 0 0 1-.94.879h-1.455z" class="cls-1" data-name="패스 131" transform="translate(-40.907 -15.819)"/>
    <path id="패스_132" d="M96.419 35.237h.3a3.722 3.722 0 0 0 3.789-3.637v-6.063a3.722 3.722 0 0 0-3.786-3.637h-.3a3.749 3.749 0 0 0-3.822 3.637V31.6a3.749 3.749 0 0 0 3.819 3.637zm-1.455-9.791a1.436 1.436 0 0 1 1.516-1.364h.212a1.427 1.427 0 0 1 1.485 1.364v6.275a1.436 1.436 0 0 1-1.516 1.364h-.181a1.476 1.476 0 0 1-1.516-1.364z" class="cls-1" data-name="패스 132" transform="translate(-64.531 -15.262)"/>
    <path id="패스_133" d="M132.519 35.725h.3a3.729 3.729 0 0 0 3.819-3.637v-9.276a.207.207 0 0 0-.212-.212h-1.94a.207.207 0 0 0-.212.212v9.336a1.44 1.44 0 0 1-1.516 1.394h-.182a1.491 1.491 0 0 1-1.546-1.425v-9.305a.207.207 0 0 0-.212-.212h-1.91a.207.207 0 0 0-.212.212v9.275a3.729 3.729 0 0 0 3.823 3.638z" class="cls-1" data-name="패스 133" transform="translate(-89.689 -15.75)"/>
    <path id="패스_134" d="M165.643 35.473h1.849a.207.207 0 0 0 .212-.212V29.35l-.121-2.122h.061l.667 2.092 2.334 6.032a.228.228 0 0 0 .212.152h2.061a.207.207 0 0 0 .212-.212v-12.55a.207.207 0 0 0-.212-.212h-1.849a.207.207 0 0 0-.212.212v5.911l.121 2.152h-.061l-.7-2.152-2.334-6a.228.228 0 0 0-.212-.152h-2.061a.207.207 0 0 0-.212.212v12.518c.032.152.123.242.245.242z" class="cls-1" data-name="패스 134" transform="translate(-115.264 -15.68)"/>
    <path id="패스_135" d="M202.1 35.543h3.516a3.7 3.7 0 0 0 3.789-3.607v-5.729a3.7 3.7 0 0 0-3.789-3.607H202.1a.207.207 0 0 0-.212.212v12.519c-.029.121.092.212.212.212zm2.092-10.791h1.364a1.4 1.4 0 0 1 1.455 1.364v5.911a1.4 1.4 0 0 1-1.455 1.364h-1.364z" class="cls-1" data-name="패스 135" transform="translate(-140.689 -15.75)"/>
    <path id="패스_136" d="M279.876 35.14l-3.456-6.365 3.243-5.941a.222.222 0 0 0-.182-.333h-2.151a.255.255 0 0 0-.212.121l-3.334 6.153-3.456 6.365a.222.222 0 0 0 .182.333h2.152a.255.255 0 0 0 .212-.121l2.243-4.122 2.243 4.122a.2.2 0 0 0 .212.121h2.152c.122 0 .213-.181.152-.333z" class="cls-1" data-name="패스 136" transform="translate(-188.365 -15.68)"/>
    <path id="패스_137" d="M273.464 22.721a.2.2 0 0 0-.212-.121H271.1a.213.213 0 0 0-.182.333l2.546 4.7h.03l1.3-2.395v-.03z" class="cls-1" data-name="패스 137" transform="translate(-188.773 -15.75)"/>
</svg>
